<svg version="1.2" xmlns="http://www.w3.org/2000/svg" viewBox="0 0 50 50" width="50" height="50">
	<title>download-svg</title>
	<defs>
		<clipPath clipPathUnits="userSpaceOnUse" id="cp1">
			<path d="m0.02 0.02h49.96v49.96h-49.96z"/>
		</clipPath>
	</defs>
	<style>
		.s0 { fill: #33e380 } 
	</style>
	<g id="Clip-Path" clip-path="url(#cp1)">
		<g id="Layer">
			<path id="Layer" fill-rule="evenodd" className="s0" d="m24.3 48.1l-3.6 1.6c-1.5 0.7-3.3 0.2-4.3-1.2l-2.3-3.2c-0.3-0.4-0.8-0.6-1.3-0.7l-3.8-0.4c-1.7-0.2-3-1.5-3.2-3.2l-0.4-3.8c-0.1-0.5-0.3-1-0.7-1.3l-3.2-2.3c-1.4-1-1.9-2.8-1.2-4.3l1.6-3.6c0.2-0.4 0.2-1 0-1.4l-1.6-3.6c-0.7-1.5-0.2-3.3 1.2-4.3l3.2-2.3c0.4-0.3 0.6-0.8 0.7-1.3l0.4-3.8c0.2-1.7 1.5-3 3.2-3.2l3.8-0.4c0.5-0.1 1-0.3 1.3-0.7l2.3-3.2c1-1.4 2.8-1.9 4.3-1.2l3.6 1.6c0.4 0.2 1 0.2 1.4 0l3.6-1.6c1.5-0.7 3.3-0.2 4.3 1.2l2.3 3.2c0.3 0.4 0.8 0.6 1.3 0.7l3.8 0.4c1.7 0.2 3 1.5 3.2 3.2l0.4 3.8c0.1 0.5 0.3 1 0.7 1.3l3.2 2.3c1.4 1 1.9 2.8 1.2 4.3l-1.6 3.6c-0.2 0.4-0.2 1 0 1.4l1.6 3.6c0.7 1.5 0.2 3.3-1.2 4.3l-3.2 2.3c-0.4 0.3-0.6 0.8-0.7 1.3l-0.4 3.8c-0.2 1.7-1.5 3-3.2 3.2l-3.8 0.4c-0.5 0.1-1 0.3-1.3 0.7l-2.3 3.2c-1 1.4-2.8 1.9-4.3 1.2l-3.6-1.6c-0.4-0.2-1-0.2-1.4 0zm-8.9-26.5l-3.1 3.1 10.2 10.1 15.6-15.6-3-3-12.6 12.6z"/>
		</g>
	</g>
</svg>